<svg width="14" height="11" viewBox="0 0 14 11" fill="none" xmlns="http://www.w3.org/2000/svg">
<path d="M13.0306 2.03032L5.0306 10.0303C4.96092 10.1002 4.87813 10.1557 4.78696 10.1936C4.6958 10.2314 4.59806 10.2509 4.49935 10.2509C4.40064 10.2509 4.3029 10.2314 4.21173 10.1936C4.12057 10.1557 4.03778 10.1002 3.9681 10.0303L0.468098 6.53032C0.398333 6.46056 0.342993 6.37774 0.305236 6.28658C0.26748 6.19543 0.248047 6.09774 0.248047 5.99907C0.248047 5.90041 0.26748 5.80272 0.305236 5.71156C0.342993 5.62041 0.398333 5.53759 0.468098 5.46782C0.537863 5.39806 0.620685 5.34272 0.711837 5.30496C0.802989 5.26721 0.900686 5.24777 0.999348 5.24777C1.09801 5.24777 1.19571 5.26721 1.28686 5.30496C1.37801 5.34272 1.46083 5.39806 1.5306 5.46782L4.49997 8.4372L11.9693 0.969074C12.1102 0.828178 12.3013 0.749023 12.5006 0.749023C12.6999 0.749023 12.891 0.828178 13.0318 0.969074C13.1727 1.10997 13.2519 1.30107 13.2519 1.50032C13.2519 1.69958 13.1727 1.89068 13.0318 2.03157L13.0306 2.03032Z" fill="#189EFF"/>
</svg>
