<svg width="12" height="7" viewBox="0 0 12 7" fill="none" xmlns="http://www.w3.org/2000/svg">
<path d="M11.8402 0.93162L6.38589 6.38589C6.33523 6.4366 6.27508 6.47683 6.20887 6.50428C6.14265 6.53173 6.07168 6.54585 6 6.54585C5.92832 6.54585 5.85735 6.53173 5.79113 6.50428C5.72492 6.47683 5.66476 6.4366 5.61411 6.38589L0.159841 0.93162C0.0574964 0.829276 0 0.690467 0 0.54573C0 0.400994 0.0574964 0.262185 0.159841 0.15984C0.262185 0.0574961 0.400994 0 0.54573 0C0.690467 0 0.829275 0.0574961 0.93162 0.15984L6 5.2289L11.0684 0.15984C11.1191 0.109165 11.1792 0.0689665 11.2454 0.041541C11.3116 0.0141155 11.3826 0 11.4543 0C11.5259 0 11.5969 0.0141155 11.6631 0.041541C11.7293 0.0689665 11.7895 0.109165 11.8402 0.15984C11.8908 0.210516 11.931 0.270677 11.9585 0.336888C11.9859 0.403099 12 0.474064 12 0.54573C12 0.617396 11.9859 0.688361 11.9585 0.754572C11.931 0.820783 11.8908 0.880944 11.8402 0.93162Z" fill="#949499"/>
</svg>
