<svg width="13" height="15" viewBox="0 0 13 15" fill="none" xmlns="http://www.w3.org/2000/svg">
<path d="M7.4999 10.4998C8.48881 10.4998 9.45551 10.2065 10.2778 9.6571C11.1 9.10769 11.7409 8.3268 12.1193 7.41317C12.4977 6.49954 12.5968 5.49421 12.4038 4.5243C12.2109 3.5544 11.7347 2.66348 11.0354 1.96422C10.3362 1.26496 9.44526 0.788753 8.47535 0.595827C7.50545 0.402901 6.50011 0.501918 5.58648 0.880356C4.67285 1.25879 3.89196 1.89966 3.34255 2.7219C2.79314 3.54415 2.4999 4.51085 2.4999 5.49975C2.50139 6.82538 3.02865 8.09628 3.96601 9.03364C4.90337 9.971 6.17427 10.4983 7.4999 10.4998ZM7.4999 1.49975C8.29103 1.49975 9.06438 1.73435 9.72218 2.17387C10.38 2.6134 10.8927 3.23812 11.1954 3.96902C11.4982 4.69992 11.5774 5.50419 11.423 6.28011C11.2687 7.05604 10.8877 7.76877 10.3283 8.32818C9.76892 8.88759 9.05619 9.26855 8.28026 9.42289C7.50434 9.57724 6.70007 9.49802 5.96917 9.19527C5.23826 8.89252 4.61355 8.37983 4.17402 7.72203C3.7345 7.06424 3.4999 6.29088 3.4999 5.49975C3.50106 4.43924 3.92286 3.4225 4.67275 2.67261C5.42265 1.92271 6.43939 1.50091 7.4999 1.49975ZM12.3605 9.8435C12.4061 9.89088 12.4419 9.94677 12.4658 10.008C12.4897 10.0692 12.5014 10.1345 12.5 10.2002C12.4987 10.2659 12.4844 10.3307 12.458 10.3909C12.4316 10.4511 12.3936 10.5055 12.3461 10.551C11.1695 11.6857 9.63064 12.3695 7.9999 12.4823V13.4998H9.4999C9.63251 13.4998 9.75969 13.5524 9.85345 13.6462C9.94722 13.74 9.9999 13.8671 9.9999 13.9998C9.9999 14.1324 9.94722 14.2595 9.85345 14.3533C9.75969 14.4471 9.63251 14.4998 9.4999 14.4998H5.4999C5.36729 14.4998 5.24011 14.4471 5.14635 14.3533C5.05258 14.2595 4.9999 14.1324 4.9999 13.9998C4.9999 13.8671 5.05258 13.74 5.14635 13.6462C5.24011 13.5524 5.36729 13.4998 5.4999 13.4998H6.9999V12.4816C5.67378 12.3866 4.40213 11.916 3.33374 11.1247C2.26534 10.3334 1.4444 9.25415 0.966948 8.01332C0.489498 6.77248 0.375291 5.42134 0.637689 4.11797C0.900088 2.8146 1.52824 1.61291 2.44865 0.653503C2.49383 0.604958 2.54821 0.565886 2.60864 0.53856C2.66906 0.511235 2.73432 0.496202 2.80061 0.494338C2.8669 0.492474 2.9329 0.503815 2.99476 0.527702C3.05663 0.551588 3.11312 0.587543 3.16096 0.633472C3.20879 0.679401 3.24701 0.734387 3.2734 0.79523C3.29978 0.856072 3.31379 0.921554 3.31462 0.987865C3.31546 1.05418 3.30309 1.11999 3.27824 1.18147C3.2534 1.24296 3.21657 1.29889 3.1699 1.346C2.07995 2.47817 1.47772 3.99279 1.49265 5.56427C1.50757 7.13576 2.13848 8.63866 3.24973 9.74992C4.36099 10.8612 5.86389 11.4921 7.43538 11.507C9.00687 11.5219 10.5215 10.9197 11.6537 9.82975C11.7492 9.73786 11.8774 9.68768 12.0099 9.69026C12.1425 9.69284 12.2686 9.74796 12.3605 9.8435Z" fill="#189EFF"/>
</svg>
