<svg width="13" height="13" viewBox="0 0 13 13" fill="none" xmlns="http://www.w3.org/2000/svg">
<path d="M12 0H1C0.734784 0 0.48043 0.105357 0.292893 0.292893C0.105357 0.48043 0 0.734784 0 1V12C0 12.2652 0.105357 12.5196 0.292893 12.7071C0.48043 12.8946 0.734784 13 1 13H12C12.2652 13 12.5196 12.8946 12.7071 12.7071C12.8946 12.5196 13 12.2652 13 12V1C13 0.734784 12.8946 0.48043 12.7071 0.292893C12.5196 0.105357 12.2652 0 12 0ZM12 12H1V1H12V12ZM4.5 5.5V9.5C4.5 9.63261 4.44732 9.75979 4.35355 9.85355C4.25979 9.94732 4.13261 10 4 10C3.86739 10 3.74021 9.94732 3.64645 9.85355C3.55268 9.75979 3.5 9.63261 3.5 9.5V5.5C3.5 5.36739 3.55268 5.24021 3.64645 5.14645C3.74021 5.05268 3.86739 5 4 5C4.13261 5 4.25979 5.05268 4.35355 5.14645C4.44732 5.24021 4.5 5.36739 4.5 5.5ZM10 7.25V9.5C10 9.63261 9.94732 9.75979 9.85355 9.85355C9.75979 9.94732 9.63261 10 9.5 10C9.36739 10 9.24021 9.94732 9.14645 9.85355C9.05268 9.75979 9 9.63261 9 9.5V7.25C9 6.91848 8.8683 6.60054 8.63388 6.36612C8.39946 6.1317 8.08152 6 7.75 6C7.41848 6 7.10054 6.1317 6.86612 6.36612C6.6317 6.60054 6.5 6.91848 6.5 7.25V9.5C6.5 9.63261 6.44732 9.75979 6.35355 9.85355C6.25979 9.94732 6.13261 10 6 10C5.86739 10 5.74021 9.94732 5.64645 9.85355C5.55268 9.75979 5.5 9.63261 5.5 9.5V5.5C5.50062 5.37753 5.54617 5.25954 5.62801 5.16843C5.70985 5.07731 5.82228 5.0194 5.94398 5.00568C6.06569 4.99196 6.18819 5.02339 6.28826 5.094C6.38833 5.16461 6.459 5.26949 6.48688 5.38875C6.82512 5.1593 7.21947 5.02631 7.62759 5.00407C8.03571 4.98184 8.44218 5.07119 8.80335 5.26254C9.16452 5.45388 9.46674 5.74 9.67757 6.09015C9.8884 6.44031 9.99987 6.84127 10 7.25ZM4.75 3.75C4.75 3.89834 4.70601 4.04334 4.6236 4.16668C4.54119 4.29001 4.42406 4.38614 4.28701 4.44291C4.14997 4.49968 3.99917 4.51453 3.85368 4.48559C3.7082 4.45665 3.57456 4.38522 3.46967 4.28033C3.36478 4.17544 3.29335 4.0418 3.26441 3.89632C3.23547 3.75083 3.25032 3.60003 3.30709 3.46299C3.36386 3.32594 3.45999 3.20881 3.58332 3.1264C3.70666 3.04399 3.85166 3 4 3C4.19891 3 4.38968 3.07902 4.53033 3.21967C4.67098 3.36032 4.75 3.55109 4.75 3.75Z" fill="#189EFF"/>
</svg>
