<svg width="11" height="15" viewBox="0 0 11 15" fill="none" xmlns="http://www.w3.org/2000/svg">
<path d="M5.5 3.5C5.00555 3.5 4.5222 3.64662 4.11107 3.92133C3.69995 4.19603 3.37952 4.58648 3.1903 5.04329C3.00108 5.50011 2.95157 6.00277 3.04804 6.48773C3.1445 6.97268 3.3826 7.41814 3.73223 7.76777C4.08186 8.1174 4.52732 8.3555 5.01227 8.45196C5.49723 8.54843 5.99989 8.49892 6.45671 8.3097C6.91352 8.12048 7.30397 7.80005 7.57867 7.38893C7.85338 6.9778 8 6.49445 8 6C8 5.33696 7.73661 4.70107 7.26777 4.23223C6.79893 3.76339 6.16304 3.5 5.5 3.5ZM5.5 7.5C5.20333 7.5 4.91332 7.41203 4.66664 7.24721C4.41997 7.08238 4.22771 6.84811 4.11418 6.57403C4.00065 6.29994 3.97094 5.99834 4.02882 5.70737C4.0867 5.41639 4.22956 5.14912 4.43934 4.93934C4.64912 4.72956 4.91639 4.5867 5.20736 4.52882C5.49834 4.47094 5.79994 4.50065 6.07403 4.61418C6.34811 4.72771 6.58238 4.91997 6.7472 5.16665C6.91203 5.41332 7 5.70333 7 6C7 6.39783 6.84196 6.77936 6.56066 7.06066C6.27936 7.34197 5.89782 7.5 5.5 7.5ZM5.5 0.5C4.04182 0.501654 2.64383 1.08165 1.61274 2.11274C0.581648 3.14383 0.00165421 4.54182 0 6C0 7.9625 0.906875 10.0425 2.625 12.0156C3.39701 12.9072 4.26591 13.7101 5.21562 14.4094C5.2997 14.4683 5.39985 14.4999 5.5025 14.4999C5.60515 14.4999 5.70531 14.4683 5.78938 14.4094C6.73734 13.7098 7.60455 12.9069 8.375 12.0156C10.0906 10.0425 11 7.9625 11 6C10.9983 4.54182 10.4184 3.14383 9.38726 2.11274C8.35617 1.08165 6.95818 0.501654 5.5 0.5ZM5.5 13.375C4.46688 12.5625 1 9.57813 1 6C1 4.80653 1.47411 3.66193 2.31802 2.81802C3.16193 1.97411 4.30653 1.5 5.5 1.5C6.69347 1.5 7.83807 1.97411 8.68198 2.81802C9.52589 3.66193 10 4.80653 10 6C10 9.57688 6.53312 12.5625 5.5 13.375Z" fill="#189EFF"/>
</svg>
