<svg width="24" height="25" viewBox="0 0 24 25" fill="none" xmlns="http://www.w3.org/2000/svg">
<path d="M20.7936 16.9944C20.2733 16.0981 19.4999 13.5622 19.4999 10.25C19.4999 8.26088 18.7097 6.35322 17.3032 4.9467C15.8967 3.54018 13.989 2.75 11.9999 2.75C10.0108 2.75 8.10311 3.54018 6.69659 4.9467C5.29007 6.35322 4.49989 8.26088 4.49989 10.25C4.49989 13.5631 3.72551 16.0981 3.2052 16.9944C3.07233 17.2222 3.00189 17.4811 3.00099 17.7449C3.00008 18.0086 3.06874 18.268 3.20005 18.4967C3.33135 18.7255 3.52065 18.9156 3.74886 19.0478C3.97708 19.1801 4.23613 19.2498 4.49989 19.25H8.32583C8.49886 20.0967 8.95904 20.8577 9.62852 21.4042C10.298 21.9507 11.1357 22.2492 11.9999 22.2492C12.8641 22.2492 13.7018 21.9507 14.3713 21.4042C15.0407 20.8577 15.5009 20.0967 15.674 19.25H19.4999C19.7636 19.2496 20.0225 19.1798 20.2506 19.0475C20.4787 18.9151 20.6678 18.725 20.799 18.4963C20.9302 18.2676 20.9988 18.0083 20.9979 17.7446C20.9969 17.4809 20.9265 17.2222 20.7936 16.9944ZM11.9999 20.75C11.5347 20.7499 11.081 20.6055 10.7013 20.3369C10.3215 20.0683 10.0343 19.6886 9.87927 19.25H14.1205C13.9655 19.6886 13.6783 20.0683 13.2985 20.3369C12.9188 20.6055 12.4651 20.7499 11.9999 20.75ZM4.49989 17.75C5.22177 16.5087 5.99989 13.6325 5.99989 10.25C5.99989 8.6587 6.63203 7.13258 7.75725 6.00736C8.88247 4.88214 10.4086 4.25 11.9999 4.25C13.5912 4.25 15.1173 4.88214 16.2425 6.00736C17.3678 7.13258 17.9999 8.6587 17.9999 10.25C17.9999 13.6297 18.7761 16.5059 19.4999 17.75H4.49989Z" fill="#171717"/>
</svg>
