<svg width="12" height="15" viewBox="0 0 12 15" fill="none" xmlns="http://www.w3.org/2000/svg">
<path d="M9.49991 9.50005C9.16637 9.49994 8.83619 9.56676 8.52894 9.69656C8.22169 9.82635 7.94361 10.0165 7.71116 10.2557L4.82991 8.4038C5.05655 7.82261 5.05655 7.17749 4.82991 6.5963L7.71116 4.74442C8.14394 5.18775 8.72592 5.45458 9.34426 5.49319C9.96261 5.5318 10.5733 5.33944 11.0578 4.95339C11.5424 4.56735 11.8664 4.01513 11.9669 3.40379C12.0675 2.79246 11.9374 2.16557 11.602 1.64466C11.2666 1.12375 10.7498 0.745928 10.1516 0.584454C9.5535 0.422981 8.91672 0.489355 8.36474 0.770708C7.81276 1.05206 7.38492 1.52835 7.16416 2.10723C6.9434 2.68611 6.94544 3.32634 7.16991 3.9038L4.28866 5.75567C3.9417 5.39947 3.4964 5.15483 3.00968 5.05301C2.52296 4.9512 2.01694 4.99685 1.5563 5.18411C1.09565 5.37138 0.701321 5.69176 0.423705 6.1043C0.146089 6.51684 -0.00219727 7.0028 -0.00219727 7.50005C-0.00219727 7.9973 0.146089 8.48326 0.423705 8.8958C0.701321 9.30834 1.09565 9.62872 1.5563 9.81599C2.01694 10.0033 2.52296 10.0489 3.00968 9.94708C3.4964 9.84527 3.9417 9.60063 4.28866 9.24442L7.16991 11.0963C6.97689 11.5941 6.94833 12.1407 7.0884 12.6559C7.22848 13.1712 7.52984 13.628 7.94835 13.9596C8.36685 14.2912 8.88053 14.48 9.41415 14.4985C9.94776 14.5171 10.4733 14.3642 10.9138 14.0625C11.3543 13.7607 11.6866 13.3258 11.862 12.8215C12.0375 12.3173 12.0469 11.77 11.8888 11.26C11.7308 10.75 11.4136 10.304 10.9837 9.98731C10.5538 9.6706 10.0338 9.49985 9.49991 9.50005ZM9.49991 1.50005C9.79658 1.50005 10.0866 1.58802 10.3333 1.75284C10.5799 1.91767 10.7722 2.15193 10.8857 2.42602C10.9993 2.70011 11.029 3.00171 10.9711 3.29268C10.9132 3.58366 10.7703 3.85093 10.5606 4.06071C10.3508 4.27049 10.0835 4.41335 9.79254 4.47123C9.50157 4.5291 9.19997 4.4994 8.92588 4.38587C8.65179 4.27234 8.41752 4.08008 8.2527 3.8334C8.08788 3.58673 7.99991 3.29672 7.99991 3.00005C7.99991 2.60222 8.15794 2.22069 8.43925 1.93939C8.72055 1.65808 9.10208 1.50005 9.49991 1.50005ZM2.49991 9.00005C2.20323 9.00005 1.91322 8.91208 1.66655 8.74725C1.41988 8.58243 1.22762 8.34816 1.11409 8.07407C1.00056 7.79998 0.970851 7.49839 1.02873 7.20741C1.08661 6.91644 1.22947 6.64917 1.43925 6.43939C1.64902 6.22961 1.9163 6.08675 2.20727 6.02887C2.49824 5.97099 2.79984 6.0007 3.07393 6.11423C3.34802 6.22776 3.58229 6.42002 3.74711 6.66669C3.91193 6.91337 3.99991 7.20338 3.99991 7.50005C3.99991 7.89787 3.84187 8.2794 3.56057 8.56071C3.27926 8.84201 2.89773 9.00005 2.49991 9.00005ZM9.49991 13.5C9.20323 13.5 8.91323 13.4121 8.66655 13.2473C8.41988 13.0824 8.22762 12.8482 8.11409 12.5741C8.00056 12.3 7.97085 11.9984 8.02873 11.7074C8.08661 11.4164 8.22947 11.1492 8.43925 10.9394C8.64902 10.7296 8.9163 10.5867 9.20727 10.5289C9.49824 10.471 9.79984 10.5007 10.0739 10.6142C10.348 10.7278 10.5823 10.92 10.7471 11.1667C10.9119 11.4134 10.9999 11.7034 10.9999 12C10.9999 12.3979 10.8419 12.7794 10.5606 13.0607C10.2793 13.342 9.89773 13.5 9.49991 13.5Z" fill="#189EFF"/>
</svg>
